<svg id="Capa_1" data-name="Capa 1" xmlns="http://www.w3.org/2000/svg" viewBox="0 0 112.92 91.84"><defs><style>.cls-1{fill:#fff;}.cls-2{fill:#1b1b3a;}</style></defs><path class="cls-1" d="M52.57,62.55V59.91h9.51v8.33a17,17,0,0,1-4.52,2.63,13.53,13.53,0,0,1-4.78.88,12.69,12.69,0,0,1-6-1.42,9.35,9.35,0,0,1-4.08-4.1,12.85,12.85,0,0,1-1.38-6,13.93,13.93,0,0,1,1.37-6.12,9.11,9.11,0,0,1,4-4.22,12.32,12.32,0,0,1,5.92-1.38,11.67,11.67,0,0,1,4.41.79A7.21,7.21,0,0,1,60,51.51a9.54,9.54,0,0,1,1.7,3.67l-2.68.74a8.19,8.19,0,0,0-1.25-2.7,5.26,5.26,0,0,0-2.15-1.57,7.92,7.92,0,0,0-3.09-.59,9.15,9.15,0,0,0-3.52.62,6.74,6.74,0,0,0-2.4,1.63,8,8,0,0,0-1.42,2.22,11.81,11.81,0,0,0-.85,4.52,11,11,0,0,0,1,5,6.67,6.67,0,0,0,3,3,9.39,9.39,0,0,0,4.2,1,9.85,9.85,0,0,0,3.76-.75,9.55,9.55,0,0,0,2.79-1.58V62.55Z" transform="translate(-39.6 -48.52)"/><path class="cls-1" d="M88.56,48.9h3v13a15.38,15.38,0,0,1-.77,5.38A6.54,6.54,0,0,1,88,70.49a9.85,9.85,0,0,1-5.25,1.25,10.73,10.73,0,0,1-5.16-1.09,6.14,6.14,0,0,1-2.86-3.15,14.82,14.82,0,0,1-.86-5.63v-13h3v13a12.69,12.69,0,0,0,.54,4.31,4.16,4.16,0,0,0,1.87,2.14,6.47,6.47,0,0,0,3.24.75q3.27,0,4.67-1.49t1.39-5.71Z" transform="translate(-39.6 -48.52)"/><path class="cls-1" d="M101.39,71.35,110,48.9h3.2l9.19,22.45H119l-2.62-6.8H107l-2.47,6.8Zm6.48-9.21h7.61l-2.35-6.22q-1.06-2.84-1.59-4.66a28.06,28.06,0,0,1-1.21,4.29Z" transform="translate(-39.6 -48.52)"/><path class="cls-1" d="M132.19,71.35V48.9h10a13,13,0,0,1,4.56.61,5,5,0,0,1,2.5,2.13,6.43,6.43,0,0,1,.93,3.39,5.68,5.68,0,0,1-1.55,4,7.85,7.85,0,0,1-4.77,2.08,7.85,7.85,0,0,1,1.79,1.12,15,15,0,0,1,2.46,3L152,71.35h-3.74l-3-4.67c-.87-1.34-1.58-2.38-2.14-3.09a7.22,7.22,0,0,0-1.51-1.5,4.39,4.39,0,0,0-1.36-.6,8.94,8.94,0,0,0-1.65-.11h-3.45v10Zm3-12.54h6.39a9.53,9.53,0,0,0,3.18-.42A3.38,3.38,0,0,0,146.48,57a3.61,3.61,0,0,0,.6-2,3.35,3.35,0,0,0-1.16-2.62,5.43,5.43,0,0,0-3.65-1h-7.11Z" transform="translate(-39.6 -48.52)"/><path class="cls-1" d="M42.06,105.86V83.4H49.8a18.2,18.2,0,0,1,4,.33,7.61,7.61,0,0,1,3.3,1.6,9.15,9.15,0,0,1,2.65,3.84,15,15,0,0,1,.89,5.34A15.63,15.63,0,0,1,60,99a11,11,0,0,1-1.53,3.27,8.42,8.42,0,0,1-2,2,8.29,8.29,0,0,1-2.68,1.12,15,15,0,0,1-3.6.39Zm3-2.65h4.8a11.42,11.42,0,0,0,3.48-.42,5,5,0,0,0,2-1.16A7.05,7.05,0,0,0,57,98.79a13.69,13.69,0,0,0,.59-4.33,10.44,10.44,0,0,0-1.15-5.41,5.85,5.85,0,0,0-2.81-2.54,11.83,11.83,0,0,0-3.85-.46H45Z" transform="translate(-39.6 -48.52)"/><path class="cls-2" d="M62.25,105.86,70.87,83.4h3.2l9.19,22.46H79.88l-2.62-6.8H67.87l-2.47,6.8Zm6.48-9.22h7.61L74,90.42q-1.08-2.83-1.6-4.66a28.06,28.06,0,0,1-1.21,4.29Z" transform="translate(-39.6 -48.52)"/><path class="cls-2" d="M85.54,105.86V83.4H90l5.31,15.9c.49,1.48.85,2.59,1.07,3.33q.39-1.23,1.2-3.6L103,83.4h4v22.46h-2.86V87.07l-6.53,18.79H94.9L88.41,86.74v19.12Z" transform="translate(-39.6 -48.52)"/><path class="cls-2" d="M109.3,105.86l8.62-22.46h3.2l9.19,22.46h-3.38l-2.62-6.8h-9.39l-2.47,6.8Zm6.48-9.22h7.61L121,90.42q-1.07-2.83-1.59-4.66a28.06,28.06,0,0,1-1.21,4.29Z" transform="translate(-39.6 -48.52)"/><path class="cls-2" d="M132.73,105.86V83.4h10a13.31,13.31,0,0,1,4.57.61,5,5,0,0,1,2.5,2.14,6.39,6.39,0,0,1,.93,3.38,5.66,5.66,0,0,1-1.55,4,7.79,7.79,0,0,1-4.78,2.08,7.72,7.72,0,0,1,1.8,1.12,15.47,15.47,0,0,1,2.46,3l3.91,6.11h-3.74l-3-4.67c-.87-1.35-1.58-2.38-2.15-3.1a7,7,0,0,0-1.5-1.5,4.92,4.92,0,0,0-1.36-.6,9.24,9.24,0,0,0-1.65-.1H135.7v10Zm3-12.55h6.39a9.53,9.53,0,0,0,3.18-.42A3.41,3.41,0,0,0,147,91.55a3.65,3.65,0,0,0,.6-2,3.36,3.36,0,0,0-1.16-2.62,5.43,5.43,0,0,0-3.65-1H135.7Z" transform="translate(-39.6 -48.52)"/><path class="cls-1" d="M39.6,140.36l8.62-22.45h3.2l9.19,22.45H57.23l-2.62-6.8H45.22l-2.47,6.8Zm6.48-9.22h7.61l-2.35-6.22q-1.06-2.83-1.59-4.65a27.94,27.94,0,0,1-1.21,4.28Z" transform="translate(-39.6 -48.52)"/><path class="cls-1" d="M70.26,140.36V117.91h4.48l5.31,15.89c.49,1.49.85,2.59,1.07,3.33.26-.82.65-2,1.2-3.6l5.37-15.62h4v22.45H88.83V121.57L82.3,140.36H79.62l-6.49-19.11v19.11Z" transform="translate(-39.6 -48.52)"/><path class="cls-1" d="M101.39,140.36,110,117.91h3.2l9.19,22.45H119l-2.62-6.8H107l-2.47,6.8Zm6.48-9.22h7.61l-2.35-6.22q-1.06-2.83-1.59-4.65a27.94,27.94,0,0,1-1.21,4.28Z" transform="translate(-39.6 -48.52)"/><path class="cls-1" d="M132.19,140.36V117.91h10a13.32,13.32,0,0,1,4.56.6,5.08,5.08,0,0,1,2.5,2.14,6.39,6.39,0,0,1,.93,3.38,5.64,5.64,0,0,1-1.55,4,7.79,7.79,0,0,1-4.77,2.08,7.85,7.85,0,0,1,1.79,1.12,15.11,15.11,0,0,1,2.46,3l3.91,6.11h-3.74l-3-4.67c-.87-1.35-1.58-2.38-2.14-3.1a7.22,7.22,0,0,0-1.51-1.5,4.61,4.61,0,0,0-1.36-.59,8.94,8.94,0,0,0-1.65-.11h-3.45v10Zm3-12.54h6.39a9.53,9.53,0,0,0,3.18-.42,3.43,3.43,0,0,0,1.75-1.35,3.65,3.65,0,0,0,.6-2,3.36,3.36,0,0,0-1.16-2.62,5.43,5.43,0,0,0-3.65-1h-7.11Z" transform="translate(-39.6 -48.52)"/></svg>