<svg xmlns="http://www.w3.org/2000/svg" viewBox="0 0 553 553"><defs><style>.cls-1 {
  fill: #10a5f5;
}

.cls-2 {
  fill: #fff;
}

.cls-3 {
  fill: #070040;
}
</style></defs><g id="fondo"><rect class="cls-1" width="553" height="553"></rect></g><g id="Letras"><path class="cls-2" d="M137.51,171.52v-8.4l30.32,0v26.56a53.53,53.53,0,0,1-14.4,8.37,42.79,42.79,0,0,1-15.24,2.81A40.63,40.63,0,0,1,119,196.3a29.82,29.82,0,0,1-13-13.06,41.13,41.13,0,0,1-4.39-19.09A44.36,44.36,0,0,1,106,144.64a29,29,0,0,1,12.57-13.45,39.41,39.41,0,0,1,18.9-4.39,37.39,37.39,0,0,1,14,2.51,23.31,23.31,0,0,1,9.84,7A31.18,31.18,0,0,1,166.76,148l-8.55,2.34a26.37,26.37,0,0,0-4-8.59,16.41,16.41,0,0,0-6.84-5,25.12,25.12,0,0,0-9.86-1.88,29,29,0,0,0-11.23,2,20.88,20.88,0,0,0-7.64,5.2,24.69,24.69,0,0,0-4.52,7.08,37.52,37.52,0,0,0-2.73,14.4q0,9.57,3.29,16a21.08,21.08,0,0,0,9.6,9.57,29.75,29.75,0,0,0,13.38,3.12,31.76,31.76,0,0,0,12-2.36,31,31,0,0,0,8.88-5.06V171.52Z"></path><path class="cls-2" d="M252.27,128h9.47v41.35q0,10.8-2.44,17.14a21,21,0,0,1-8.81,10.33q-6.37,4-16.73,4-10,0-16.45-3.47a19.73,19.73,0,0,1-9.13-10q-2.75-6.57-2.74-17.95V128h9.48v41.31q0,9.31,1.73,13.74a13.09,13.09,0,0,0,6,6.81,20.57,20.57,0,0,0,10.32,2.39q10.45,0,14.9-4.73t4.44-18.21Z"></path><path class="cls-2" d="M293.15,199.6,320.64,128h10.21l29.29,71.58H349.35L341,177.92H311.07l-7.86,21.68Zm20.66-29.4h24.26l-7.47-19.82q-3.42-9-5.08-14.84a91.21,91.21,0,0,1-3.85,13.67Z"></path><path class="cls-2" d="M391.36,199.6V128H423.1q9.57,0,14.55,1.93a15.88,15.88,0,0,1,8,6.81,20.35,20.35,0,0,1,3,10.79,18,18,0,0,1-4.93,12.84q-4.92,5.22-15.23,6.64a24.55,24.55,0,0,1,5.71,3.56,49,49,0,0,1,7.86,9.53l12.45,19.48H442.53l-9.47-14.89q-4.15-6.45-6.84-9.87a21.3,21.3,0,0,0-4.81-4.78,14.19,14.19,0,0,0-4.32-1.91,29.15,29.15,0,0,0-5.27-.34h-11V199.6Zm9.47-40h20.36a30.7,30.7,0,0,0,10.16-1.34,10.85,10.85,0,0,0,5.57-4.3,11.7,11.7,0,0,0,1.9-6.42,10.65,10.65,0,0,0-3.69-8.35q-3.69-3.27-11.64-3.27H400.83Z"></path><path class="cls-2" d="M104,309.6V238h24.66a60.16,60.16,0,0,1,12.75,1,24.3,24.3,0,0,1,10.49,5.13,29.09,29.09,0,0,1,8.47,12.23,47.83,47.83,0,0,1,2.81,17,50,50,0,0,1-1.9,14.45,35.17,35.17,0,0,1-4.88,10.42,25.91,25.91,0,0,1-6.52,6.5,26.68,26.68,0,0,1-8.55,3.59,49,49,0,0,1-11.5,1.22Zm9.48-8.45h15.28a37.08,37.08,0,0,0,11.11-1.32,15.91,15.91,0,0,0,6.42-3.71,22.64,22.64,0,0,0,5.25-9.06,44.36,44.36,0,0,0,1.88-13.79q0-11.24-3.69-17.26t-9-8.08q-3.81-1.47-12.26-1.47h-15Z"></path><path class="cls-3" d="M168.37,309.6,195.86,238h10.2l29.3,71.58H224.57l-8.35-21.68H186.29l-7.86,21.68ZM189,280.2h24.27l-7.47-19.82q-3.42-9-5.08-14.84a91.26,91.26,0,0,1-3.86,13.67Z"></path><path class="cls-3" d="M242.64,309.6V238h14.25l16.95,50.68q2.34,7.08,3.41,10.6,1.23-3.92,3.81-11.48L298.2,238H311V309.6h-9.13V249.69L281,309.6h-8.54l-20.7-60.94V309.6Z"></path><path class="cls-3" d="M318.37,309.6,345.86,238h10.2l29.3,71.58H374.57l-8.35-21.68H336.29l-7.86,21.68ZM339,280.2h24.27l-7.47-19.82q-3.42-9-5.08-14.84a91.26,91.26,0,0,1-3.86,13.67Z"></path><path class="cls-3" d="M393.08,309.6V238h31.73q9.57,0,14.55,1.93a15.84,15.84,0,0,1,8,6.81,20.26,20.26,0,0,1,3,10.79,18,18,0,0,1-4.93,12.84q-4.94,5.22-15.23,6.64a24.55,24.55,0,0,1,5.71,3.56,49,49,0,0,1,7.86,9.53l12.45,19.48H444.25l-9.48-14.89q-4.14-6.45-6.83-9.87a21.51,21.51,0,0,0-4.81-4.78,14.41,14.41,0,0,0-4.32-1.91,29.28,29.28,0,0,0-5.28-.34h-11V309.6Zm9.47-40h20.36a30.74,30.74,0,0,0,10.16-1.34,10.83,10.83,0,0,0,5.56-4.3,11.63,11.63,0,0,0,1.91-6.42,10.65,10.65,0,0,0-3.69-8.35q-3.69-3.27-11.65-3.27H402.55Z"></path><path class="cls-2" d="M96.15,419.6,123.64,348h10.21l29.29,71.58H152.35L144,397.92H114.07l-7.86,21.68Zm20.66-29.4h24.26l-7.47-19.82q-3.42-9-5.08-14.84a91.21,91.21,0,0,1-3.85,13.67Z"></path><path class="cls-2" d="M193.92,419.6V348h14.26l16.94,50.68q2.34,7.08,3.42,10.6,1.22-3.92,3.81-11.48L249.49,348h12.74V419.6H253.1V359.69L232.3,419.6h-8.55l-20.7-60.94V419.6Z"></path><path class="cls-2" d="M293.15,419.6,320.64,348h10.21l29.29,71.58H349.35L341,397.92H311.07l-7.86,21.68Zm20.66-29.4h24.26l-7.47-19.82q-3.42-9-5.08-14.84a91.21,91.21,0,0,1-3.85,13.67Z"></path><path class="cls-2" d="M391.36,419.6V348H423.1q9.57,0,14.55,1.93a15.88,15.88,0,0,1,8,6.81,20.35,20.35,0,0,1,3,10.79,18,18,0,0,1-4.93,12.84q-4.92,5.22-15.23,6.64a24.89,24.89,0,0,1,5.71,3.56,49,49,0,0,1,7.86,9.53l12.45,19.48H442.53l-9.47-14.89q-4.15-6.45-6.84-9.87a21.3,21.3,0,0,0-4.81-4.78,14.19,14.19,0,0,0-4.32-1.91,29.15,29.15,0,0,0-5.27-.34h-11V419.6Zm9.47-40h20.36a30.7,30.7,0,0,0,10.16-1.34,10.85,10.85,0,0,0,5.57-4.3,11.7,11.7,0,0,0,1.9-6.42,10.65,10.65,0,0,0-3.69-8.35q-3.69-3.27-11.64-3.27H400.83Z"></path></g><g id="corazón"><path class="cls-3" d="M471.16,402.78a24,24,0,0,0-18.9-.48c-6.79,2.77-12.39,8.77-16.21,17.33-3.08,6.92-3.85,15.19-2.3,24.58a93.79,93.79,0,0,0,7.93,24.15,156.12,156.12,0,0,0,15.51,25.91l.54.71.88-.07a156.56,156.56,0,0,0,29.64-5.8,93.88,93.88,0,0,0,23.26-10.25c8-5.12,13.66-11.23,16.74-18.14,3.81-8.57,4.52-16.74,2-23.64a23.9,23.9,0,0,0-13-13.74,27.7,27.7,0,0,0-17.56-1.62,26.87,26.87,0,0,0-12.29,6.58,26.8,26.8,0,0,0-3.32-13.54,27.78,27.78,0,0,0-12.95-12Z"></path></g></svg>