<svg id="Capa_1" data-name="Capa 1" xmlns="http://www.w3.org/2000/svg" viewBox="0 0 553 553"><defs><style>.cls-1{fill:#10a5f5;}.cls-2{font-size:100px;fill:#fff;font-family:ArialMT, Arial;}.cls-3{letter-spacing:0.23em;}.cls-4{fill:#070040;}</style></defs><rect class="cls-1" width="553" height="553"/><text class="cls-2" transform="translate(96.3 199.6)"><tspan class="cls-3">GUAR</tspan><tspan x="0" y="110">D</tspan><tspan class="cls-4" x="72.22" y="110">AMAR</tspan><tspan class="cls-3"><tspan x="0" y="220">AMAR</tspan></tspan></text><path class="cls-4" d="M471.16,402.78a24,24,0,0,0-18.9-.48c-6.79,2.77-12.39,8.77-16.21,17.33-3.08,6.92-3.85,15.19-2.3,24.58a93.79,93.79,0,0,0,7.93,24.15,156.12,156.12,0,0,0,15.51,25.91l.54.71.88-.07a156.56,156.56,0,0,0,29.64-5.8,93.88,93.88,0,0,0,23.26-10.25c8-5.12,13.66-11.23,16.74-18.14,3.81-8.57,4.52-16.74,2-23.64a23.9,23.9,0,0,0-13-13.74,27.7,27.7,0,0,0-17.56-1.62,26.87,26.87,0,0,0-12.29,6.58,26.8,26.8,0,0,0-3.32-13.54,27.78,27.78,0,0,0-12.95-12Z"/></svg>